<!--?xml version="1.0" standalone="no"?-->
              <svg id="sw-js-blob-svg" viewBox="0 0 100 100" xmlns="http://www.w3.org/2000/svg" version="1.1">
                    <defs> 
                        <linearGradient id="sw-gradient" x1="0" x2="1" y1="1" y2="0">
                            <stop id="stop1" stop-color="rgba(200.516, 77.095, 18.683, 1)" offset="0%"></stop>
                            <stop id="stop2" stop-color="rgba(177.746, 24.606, 120.674, 1)" offset="100%"></stop>
                        </linearGradient>
                    </defs>
                <path fill="url(#sw-gradient)" d="M20.3,-25.7C25.9,-19.4,29.8,-12.7,30.1,-6.1C30.3,0.6,26.9,7.1,23.6,14.4C20.3,21.8,17.1,30,10.5,35.3C3.8,40.6,-6.3,42.9,-11.9,38.4C-17.4,33.9,-18.4,22.5,-23,13.7C-27.6,4.9,-35.9,-1.5,-36.3,-7.7C-36.8,-14,-29.5,-20.3,-22.2,-26.2C-14.8,-32.1,-7.4,-37.7,0,-37.7C7.3,-37.6,14.6,-31.9,20.3,-25.7Z"  transform="translate(50 50)" stroke-width="0" style="transition: all 0.3s ease 0s;"></path>
              </svg>